<svg width="79" height="79" viewBox="0 0 79 79" fill="none" xmlns="http://www.w3.org/2000/svg">
<g clip-path="url(#clip0_198_11)">
<path d="M39.5 6.58337C21.33 6.58337 6.58333 21.33 6.58333 39.5C6.58333 57.67 21.33 72.4167 39.5 72.4167C57.67 72.4167 72.4167 57.67 72.4167 39.5C72.4167 21.33 57.67 6.58337 39.5 6.58337ZM13.1667 39.5C13.1667 24.9509 24.9508 13.1667 39.5 13.1667C45.5896 13.1667 51.1854 15.2405 55.6292 18.7296L18.7296 55.6292C15.2404 51.1855 13.1667 45.5896 13.1667 39.5ZM39.5 65.8334C33.4104 65.8334 27.8146 63.7596 23.3708 60.2705L60.2704 23.3709C63.7596 27.8146 65.8333 33.4105 65.8333 39.5C65.8333 54.0492 54.0492 65.8334 39.5 65.8334Z" fill="white"/>
</g>
<defs>
<clipPath id="clip0_198_11">
<rect width="79" height="79" fill="white"/>
</clipPath>
</defs>
</svg>
