<svg width="79" height="79" viewBox="0 0 79 79" fill="none" xmlns="http://www.w3.org/2000/svg">
<g clip-path="url(#clip0_198_20)">
<path d="M41.1458 22.7125C47.005 22.7125 49.1775 25.5104 49.375 29.625H56.6496C56.4192 23.9633 52.9629 18.7625 46.0833 17.0838V9.875H36.2083V16.985C34.4638 17.38 32.8179 17.9725 31.3367 18.7625L36.1754 23.6013C37.525 23.0417 39.1708 22.7125 41.1458 22.7125ZM17.5446 13.3642L13.3642 17.5446L24.6875 28.8679C24.6875 35.7146 29.8225 39.4342 37.5579 41.7383L49.1117 53.2921C47.9925 54.8721 45.6554 56.2875 41.1458 56.2875C34.365 56.2875 31.6988 53.2592 31.3367 49.375H24.095C24.49 56.5838 29.8883 60.6325 36.2083 61.9821V69.125H46.0833V62.0479C49.2433 61.4554 52.0742 60.2375 54.1479 58.3612L61.4554 65.6688L65.6358 61.4883L17.5446 13.3642Z" fill="white"/>
</g>
<defs>
<clipPath id="clip0_198_20">
<rect width="79" height="79" fill="white"/>
</clipPath>
</defs>
</svg>
