<svg width="79" height="79" viewBox="0 0 79 79" fill="none" xmlns="http://www.w3.org/2000/svg">
<g clip-path="url(#clip0_198_29)">
<path d="M51.8711 35.4408L33.8944 17.4641C34.7965 17.0775 35.714 16.7875 36.647 16.5942C37.5825 16.4009 38.5335 16.3043 39.5 16.3043C43.3016 16.3043 46.5077 17.6084 49.1185 20.2166C51.7268 22.8274 53.0309 26.0336 53.0309 29.8351C53.0309 30.8016 52.9342 31.7527 52.7409 32.6882C52.5476 33.6212 52.2577 34.5387 51.8711 35.4408ZM15.7244 59.2164C19.0105 56.7035 22.6831 54.7216 26.7424 53.2706C30.8016 51.8221 35.0542 51.0979 39.5 51.0979C40.6598 51.0979 41.7719 51.1456 42.8364 51.2409C43.8982 51.3389 45.009 51.4845 46.1688 51.6778L37.6637 43.1727C34.6354 42.7861 32.0426 41.5129 29.8854 39.3531C27.7256 37.1959 26.4524 34.6032 26.0658 31.5748L15.0478 20.5568C12.986 23.1986 11.3919 26.1148 10.2657 29.3055C9.1368 32.4936 8.57237 35.8918 8.57237 39.5C8.57237 43.3016 9.20123 46.8776 10.459 50.2281C11.7141 53.5786 13.4692 56.5747 15.7244 59.2164ZM63.8556 58.4432C65.9174 55.8015 67.5282 52.8853 68.688 49.6946C69.8478 46.5064 70.4277 43.1083 70.4277 39.5C70.4277 30.9305 67.4161 23.6329 61.393 17.6071C55.3672 11.584 48.0696 8.57237 39.5 8.57237C35.8918 8.57237 32.4936 9.15226 29.3055 10.312C26.1148 11.4718 23.1986 13.0827 20.5568 15.1445L63.8556 58.4432ZM39.5 78.1596C34.2166 78.1596 29.223 77.1442 24.5194 75.1132C19.8159 73.0849 15.7089 70.3143 12.1986 66.8014C8.68577 63.2911 5.91517 59.1842 3.88683 54.4806C1.85591 49.777 0.840454 44.7835 0.840454 39.5C0.840454 34.1521 1.85591 29.1431 3.88683 24.4731C5.91517 19.8004 8.68577 15.7089 12.1986 12.1986C15.7089 8.68577 19.8159 5.91388 24.5194 3.88296C29.223 1.85462 34.2166 0.840454 39.5 0.840454C44.8479 0.840454 49.8569 1.85462 54.527 3.88296C59.1997 5.91388 63.2911 8.68577 66.8014 12.1986C70.3143 15.7089 73.0849 19.8004 75.1132 24.4731C77.1442 29.1431 78.1596 34.1521 78.1596 39.5C78.1596 44.7835 77.1442 49.777 75.1132 54.4806C73.0849 59.1842 70.3143 63.2911 66.8014 66.8014C63.2911 70.3143 59.1997 73.0849 54.527 75.1132C49.8569 77.1442 44.8479 78.1596 39.5 78.1596Z" fill="white"/>
</g>
<defs>
<clipPath id="clip0_198_29">
<rect width="79" height="79" fill="white"/>
</clipPath>
</defs>
</svg>
