<svg width="58" height="58" viewBox="0 0 58 58" fill="none" xmlns="http://www.w3.org/2000/svg">
<g clip-path="url(#clip0_31_10)">
<path d="M46.0375 11.8658C41.5183 7.32248 35.5008 4.83331 29.0967 4.83331C15.9017 4.83331 5.1475 15.5875 5.1475 28.7825C5.1475 33.0116 6.25916 37.12 8.3375 40.745L4.95416 53.1666L17.6417 49.8316C21.1458 51.7408 25.085 52.7558 29.0967 52.7558C42.2917 52.7558 53.0458 42.0016 53.0458 28.8066C53.0458 22.4025 50.5567 16.385 46.0375 11.8658ZM29.0967 48.6958C25.52 48.6958 22.0158 47.7291 18.9467 45.9166L18.2217 45.4816L10.6817 47.4633L12.6875 40.1166L12.2042 39.3675C10.2225 36.2016 9.15916 32.5283 9.15916 28.7825C9.15916 17.8108 18.1008 8.86915 29.0725 8.86915C34.3892 8.86915 39.3917 10.9475 43.1375 14.7175C46.9075 18.4875 48.9617 23.49 48.9617 28.8066C49.01 39.7783 40.0683 48.6958 29.0967 48.6958ZM40.02 33.8091C39.4158 33.5191 36.4675 32.0691 35.9358 31.8516C35.38 31.6583 34.9933 31.5616 34.5825 32.1416C34.1717 32.7458 33.0358 34.0991 32.6975 34.4858C32.3592 34.8966 31.9967 34.945 31.3925 34.6308C30.7883 34.3408 28.855 33.6883 26.5833 31.6583C24.795 30.0633 23.6108 28.1058 23.2483 27.5016C22.91 26.8975 23.2 26.5833 23.5142 26.2691C23.78 26.0033 24.1183 25.5683 24.4083 25.23C24.6983 24.8916 24.8192 24.6258 25.0125 24.2391C25.2058 23.8283 25.1092 23.49 24.9642 23.2C24.8192 22.91 23.6108 19.9616 23.1275 18.7533C22.6442 17.5933 22.1367 17.7383 21.7742 17.7141C21.4117 17.7141 21.025 17.7141 20.6142 17.7141C20.2033 17.7141 19.575 17.8591 19.0192 18.4633C18.4875 19.0675 16.9408 20.5175 16.9408 23.4658C16.9408 26.4141 19.0917 29.2658 19.3817 29.6525C19.6717 30.0633 23.6108 36.105 29.6042 38.6908C31.03 39.3191 32.1417 39.6816 33.0117 39.9475C34.4375 40.4066 35.7425 40.3341 36.7817 40.1891C37.9417 40.02 40.3342 38.7391 40.8175 37.3375C41.325 35.9358 41.325 34.7516 41.1558 34.4858C40.9867 34.22 40.6242 34.0991 40.02 33.8091Z" fill="white"/>
</g>
<defs>
<clipPath id="clip0_31_10">
<rect width="58" height="58" fill="white"/>
</clipPath>
</defs>
</svg>
